<?xml version="1.0" encoding="utf-8"?>
<!-- Generator: Adobe Illustrator 25.2.1, SVG Export Plug-In . SVG Version: 6.00 Build 0)  -->
<svg version="1.1" id="Calque_1" xmlns="http://www.w3.org/2000/svg" xmlns:xlink="http://www.w3.org/1999/xlink" x="0px" y="0px"
	 viewBox="0 0 60 25" style="enable-background:new 0 0 60 25;" xml:space="preserve">
<style type="text/css">
	.st0{fill:#C1272D;}
</style>
<g>
	<path d="M7.03,10.27H5.7l-0.3,1.36H4.03L5.1,6.85h2.72c1.21,0,1.87,0.62,1.62,1.73C9.2,9.65,8.14,10.27,7.03,10.27z M7.48,7.91
		H6.22l-0.3,1.36h1.19c0.59,0,0.96-0.31,1.04-0.69C8.25,8.17,8.05,7.91,7.48,7.91z"/>
	<path d="M12.28,10.73c-0.29,0.16-0.68,0.38-1.11,0.38c-0.95,0-1.57-0.5-1.41-1.21l0.49-2.2h1.22l-0.46,2.06
		c-0.05,0.2-0.01,0.42,0.42,0.42c0.3,0,0.68-0.18,1-0.36l0.47-2.11h1.23l-0.74,3.36h-1.18L12.28,10.73z"/>
	<path d="M14.42,10.68l0.33-0.74c0.46,0.25,0.96,0.4,1.5,0.4c0.15,0,0.92-0.11,0.93-0.27c0.01-0.16-0.59-0.2-0.76-0.2
		c-0.6,0-1.85-0.12-1.81-0.95c0.04-1.16,1.52-1.28,2.38-1.28c0.55,0,1.11,0.23,1.42,0.48l-0.39,0.66c-0.5-0.31-0.78-0.37-1.22-0.37
		c-0.18,0-1.02,0.07-1.03,0.31c-0.01,0.19,0.72,0.22,0.89,0.22c0.57,0,1.77,0.12,1.75,0.91c-0.04,1.13-1.51,1.27-2.35,1.27
		C15.37,11.11,15.02,11,14.42,10.68z"/>
	<path d="M21.94,8.99c0.05-0.22,0.03-0.45-0.4-0.45c-0.31,0-0.73,0.2-1.05,0.4l-0.46,2.12h-1.23L19.9,6h1.23l-0.44,2.03
		c0.31-0.22,0.7-0.38,1.14-0.38c0.96,0,1.51,0.52,1.35,1.23l-0.48,2.18h-1.22L21.94,8.99z"/>
	<path class="st0" d="M12.77,16.88c-1.51,0-2.87-0.85-2.5-2.52c0.38-1.73,2.11-2.53,3.62-2.53c1.52,0,2.86,0.89,2.5,2.55
		C16.02,16.05,14.29,16.88,12.77,16.88z M13.67,12.87c-1.16,0-1.92,0.67-2.11,1.51c-0.18,0.8,0.29,1.46,1.45,1.46
		c1.16,0,1.91-0.64,2.09-1.46C15.27,13.55,14.82,12.87,13.67,12.87z"/>
	<path class="st0" d="M19.72,14.09c0.05-0.22,0.03-0.45-0.4-0.45c-0.31,0-0.73,0.2-1.04,0.4l-0.47,2.13h-1.23l0.74-3.36h1.23
		l-0.07,0.32c0.3-0.21,0.71-0.39,1.14-0.39c0.96,0,1.51,0.52,1.36,1.23l-0.48,2.2h-1.22L19.72,14.09z"/>
	<path d="M23.72,16.18h-1.38l0.4-1.84l-1.38-2.76l0.03-0.18h1.25l1,1.98l1.79-1.98h1.35l-0.04,0.18l-2.63,2.8L23.72,16.18z"/>
	<path d="M27.15,16.24c-1.15,0-2.11-0.56-1.84-1.76c0.28-1.26,1.46-1.73,2.61-1.73c1.15,0,2.09,0.59,1.82,1.8
		C29.46,15.79,28.34,16.24,27.15,16.24z M27.71,13.7c-0.63,0-1.09,0.35-1.19,0.8c-0.09,0.42,0.21,0.76,0.85,0.76
		c0.63,0,1.09-0.33,1.19-0.76C28.64,14.06,28.34,13.7,27.71,13.7z"/>
	<path d="M32.33,15.85c-0.29,0.16-0.68,0.38-1.11,0.38c-0.95,0-1.57-0.5-1.41-1.21l0.49-2.2h1.22l-0.46,2.06
		c-0.05,0.2-0.01,0.42,0.42,0.42c0.3,0,0.68-0.18,1-0.36l0.47-2.11h1.23l-0.74,3.36h-1.18L32.33,15.85z"/>
	<path d="M36.95,13.64c-0.31,0-0.63,0.2-0.91,0.38l-0.06,0.03l-0.47,2.13h-1.22l0.74-3.36h1.22l-0.07,0.32
		c0.28-0.17,0.72-0.39,1.13-0.39c0.18,0,0.24,0.01,0.35,0.04c0.03,0.01,0.08,0.01,0.14,0.03l-0.32,1.05
		C37.46,13.85,37.17,13.64,36.95,13.64z"/>
	<path d="M39.74,13.4h2.56l-0.22,0.99h-2.56l-0.39,1.79h-1.36l1.06-4.78h4.46l-0.22,0.98h-3.1C39.9,12.73,39.82,13.05,39.74,13.4z"
		/>
	<path d="M44.26,15.34c0.5,0,0.91-0.05,1.36-0.27l0.34,0.67c-0.46,0.29-1.23,0.5-1.94,0.5c-1.2,0-2.09-0.54-1.82-1.73
		c0.26-1.18,1.32-1.75,2.56-1.75c1.32,0,1.95,0.68,1.63,2.01H43.4C43.44,15.09,43.77,15.34,44.26,15.34z M44.58,13.56
		c-0.4,0-0.74,0.2-0.95,0.53h1.68C45.33,13.89,45.25,13.56,44.58,13.56z"/>
	<path d="M48.78,15.34c0.5,0,0.91-0.05,1.36-0.27l0.34,0.67c-0.46,0.29-1.23,0.5-1.94,0.5c-1.2,0-2.09-0.54-1.82-1.73
		c0.26-1.18,1.32-1.75,2.56-1.75c1.32,0,1.95,0.68,1.63,2.01h-2.98C47.96,15.09,48.3,15.34,48.78,15.34z M49.1,13.56
		c-0.4,0-0.74,0.2-0.95,0.53h1.68C49.85,13.89,49.78,13.56,49.1,13.56z"/>
	<path d="M52.6,16.18c-0.31,0-0.61-0.06-0.87-0.25c-0.3-0.21-0.45-0.68-0.37-1.05l0.27-1.25h-0.57l0.18-0.82h0.57l0.14-0.63
		l1.32-0.43l-0.23,1.06h1.38l-0.18,0.82h-1.38l-0.24,1.09c-0.03,0.17,0,0.31,0.09,0.38c0.05,0.05,0.14,0.07,0.29,0.07
		c0.09,0,0.54-0.09,0.88-0.34l0.16,0.78C53.64,15.94,52.99,16.18,52.6,16.18z"/>
</g>
</svg>
